<!-- Generator: Adobe Illustrator 19.2.1, SVG Export Plug-In  -->
<svg version="1.1"
   xmlns="http://www.w3.org/2000/svg" xmlns:xlink="http://www.w3.org/1999/xlink" xmlns:a="http://ns.adobe.com/AdobeSVGViewerExtensions/3.0/"
   x="0px" y="0px" width="759.5px" height="278.2px" viewBox="0 0 759.5 278.2" style="enable-background:new 0 0 759.5 278.2;"
   xml:space="preserve">
<style type="text/css">
  .st0{stroke:#000000;stroke-width:2;stroke-miterlimit:10;}
</style>
<defs>
</defs>
<g>
  <path d="M0,161.7c2.3-2.8,4.6-5.7,7.4-8.5c0.6,0.6,1.7,1.7,2.3,2.8c7.4,8.5,17.1,13.1,27.9,14.8c9.7,1.1,19.4,0.6,28.5-3.4
    c11.4-5.1,18.2-14.2,22.8-25.6c4-9.7,4.6-20.5,4.6-30.7c0-17.1,0-33.6,0-50.7c0-19.4,0.6-38.7,0.6-58.6c0-0.6,0-1.1,0-1.7h11.4
    c0,0.6,0,1.7,0,2.3c0,7.4,0,14.2,0,21.6c0,31.3,0,62.1-0.6,93.4c0,5.1-0.6,10.8-1.7,15.4c-1.7,7.4-4,14.8-7.4,21.1
    c-8,15.4-19.8,24.8-38.4,27.4c-13.4,1.1-23.6,1.7-35.6-2.9c-8-2.8-14.2-8-19.9-14.2C1.1,163.4,0.6,162.8,0,161.7L0,161.7z"/>
  <path d="M757.8,182.2c-2.8,0-5.1-0.6-6.8-0.6c-4.6,0.6-6.8-1.1-8.5-5.7c-12-26.8-23.9-53.5-35.9-80.3c-12-26.2-23.3-52.9-35.3-79.7
    c-0.6-1.1-1.1-2.3-1.7-3.4c-1.1,2.8-2.3,5.1-3.4,7.4c-12.5,28.5-25.6,57.5-38.1,86c-10.8,24.5-22.2,48.4-33,72.9
    c-0.6,1.1-1.1,1.7-2.8,1.7c-3.4,0-7.4,0-11.4,0c0.6-1.1,0.6-1.7,1.1-2.3c9.1-20.5,18.2-40.4,27.3-60.9
    c17.6-38.7,35.3-77.4,52.9-115.6C662.7,0,663.8,0,665,0c2.8,0,6.3,0,9.1,0c1.7,0,2.3,0.6,2.8,1.7c12.5,27.3,24.5,54.7,37,82
    c11.4,25.1,22.2,50.1,33.6,75.2c2.8,6.8,6.3,13.7,9.1,20.5C757.2,180.5,757.2,181.1,757.8,182.2"/>
  <path d="M240.3,169.7c4.6-9.7,8.5-19.4,13.1-29c6.8-15.4,13.7-30.7,20.5-46.1c13.7-30.2,27.3-60.3,41-91.1c0.6-1.1,1.1-1.7,2.8-1.7
    c3.4,0,6.8,0,11.4,0c-27.9,60.3-55.2,120.7-82.6,180.5c-4,0-8,0-11.4,0c-0.6,0-1.7-1.1-2.3-1.7c-7.4-15.9-14.8-32.5-22.2-49
    c-2.8-6.8-6.3-13.7-9.1-20.5c-6.3-14.2-12.5-28.5-18.8-43.3c-8-18.2-16.5-36.4-24.5-54.7c-1.7-4-3.4-8.5-5.1-13.1c4,0,8,0,12,0
    c0.6,0,1.1,0.6,1.1,1.1c0.6,1.7,1.7,3.4,2.3,5.1c3.4,8.5,6.8,16.5,10.8,25.1c10.8,24.5,21.6,48.4,32.5,72.9
    c9.1,20.5,18.2,41.6,27.3,62.6C239.1,168,239.7,168.5,240.3,169.7"/>
  <path d="M382.6,170.8h101.9v11.4H370.1c0-60.9,0.6-121.3,0.6-182.2h12V170.8z"/>
  <path d="M527.2,0h12c-0.6,60.9-0.6,121.3-1.1,182.2h-12C526.6,121.3,527.2,60.4,527.2,0"/>
</g>
<g>
  <path class="st0" d="M18.6,274.1c-1.7,2-4.2,3-7.6,3c-2.4,0-4.3-0.6-6-1.7c-1.6-1.1-2.8-2.5-3.4-4.1l1.1-0.5
    c0.7,1.6,1.8,2.9,3.3,3.8c1.5,1,3.1,1.5,5,1.5c1.6,0,3-0.3,4.1-0.8s2-1.2,2.7-2.1c0.7-0.9,1.2-2,1.6-3.2s0.5-2.6,0.5-4.1v-27h1.2
    V266C21.2,269.4,20.3,272.1,18.6,274.1z"/>
  <path class="st0" d="M95.3,267.9c-0.5,1.8-1.4,3.5-2.6,4.8c-1.2,1.4-2.8,2.5-4.7,3.2c-1.9,0.8-4.3,1.2-7.1,1.2
    c-2.8,0-5.2-0.4-7.1-1.2c-1.9-0.8-3.5-1.9-4.7-3.2c-1.2-1.4-2.1-3-2.6-4.8c-0.5-1.8-0.8-3.8-0.8-5.9v-23.2h1.2v23
    c0,1.5,0.2,3.1,0.5,4.7c0.3,1.7,1,3.2,2,4.6c1,1.4,2.4,2.6,4.2,3.6c1.8,0.9,4.2,1.4,7.3,1.4c2.9,0,5.3-0.5,7.1-1.4
    c1.8-0.9,3.2-2.1,4.2-3.5c1-1.4,1.7-3,2-4.6c0.3-1.7,0.5-3.3,0.5-4.8v-23h1.2V262C96.1,264.1,95.8,266.1,95.3,267.9z"/>
  <path class="st0" d="M141,276.1v-37.3h1.2v36.3H162v1.1H141z"/>
  <path class="st0" d="M202.5,276.1v-37.3h1.2v37.3H202.5z"/>
  <path class="st0" d="M278.2,276.1l-4.7-10.7h-23l-4.9,10.7h-1.3l17.2-37.3h1.6l16.5,37.3H278.2z M262.2,239.5l-11.3,24.9h22.2
    L262.2,239.5z"/>
  <path class="st0" d="M396.5,276.1l-28.4-35.9h-0.2v35.9h-1.2v-37.3h1.7l28.5,35.8h0.2v-35.8h1.2v37.3H396.5z"/>
  <path class="st0" d="M471.1,276.2c-2.4,0.7-5.2,1-8.3,1s-6-0.5-8.6-1.5s-4.8-2.4-6.6-4.2c-1.8-1.8-3.2-3.9-4.2-6.3
    c-1-2.4-1.5-5-1.5-7.8c0-2.8,0.5-5.4,1.5-7.8c1-2.4,2.4-4.5,4.2-6.2c1.8-1.7,4-3.1,6.5-4.1c2.5-1,5.3-1.5,8.4-1.5
    c2.7,0,5.2,0.4,7.4,1.2c2.2,0.8,4.2,1.8,5.9,3.2l-0.9,0.8c-0.7-0.7-1.6-1.3-2.6-1.8c-1-0.5-2-0.9-3.1-1.3c-1.1-0.4-2.2-0.6-3.4-0.8
    c-1.2-0.2-2.3-0.3-3.4-0.3c-2.9,0-5.6,0.5-8,1.5c-2.4,1-4.4,2.3-6.1,4c-1.7,1.7-3,3.7-3.9,5.9c-0.9,2.3-1.4,4.7-1.4,7.2
    c0,2.6,0.4,5,1.3,7.3c0.9,2.3,2.2,4.3,3.9,6c1.7,1.7,3.8,3.1,6.2,4c2.4,1,5.2,1.5,8.3,1.5c2.7,0,5.1-0.3,7.2-0.8
    c2.1-0.5,4-1.2,5.8-2v-14.7h-10.3v-1h11.5V274C475.5,274.8,473.5,275.5,471.1,276.2z"/>
  <path class="st0" d="M550.8,267.9c-0.5,1.8-1.4,3.5-2.6,4.8c-1.2,1.4-2.8,2.5-4.7,3.2c-1.9,0.8-4.3,1.2-7.1,1.2s-5.2-0.4-7.1-1.2
    c-1.9-0.8-3.5-1.9-4.7-3.2c-1.2-1.4-2.1-3-2.6-4.8c-0.5-1.8-0.8-3.8-0.8-5.9v-23.2h1.2v23c0,1.5,0.2,3.1,0.5,4.7
    c0.3,1.7,1,3.2,2,4.6s2.4,2.6,4.2,3.6c1.8,0.9,4.2,1.4,7.3,1.4c2.9,0,5.3-0.5,7.1-1.4c1.8-0.9,3.2-2.1,4.2-3.5c1-1.4,1.7-3,2-4.6
    c0.3-1.7,0.5-3.3,0.5-4.8v-23h1.2V262C551.6,264.1,551.3,266.1,550.8,267.9z"/>
  <path class="st0" d="M606.3,259.8v16.4H605v-16.4l-13.6-21h1.5l12.8,19.8l12.8-19.8h1.4L606.3,259.8z"/>
  <path class="st0" d="M660.2,276.1v-37.3h23.1v1.1h-21.9v16.4h20.6v1.1h-20.6v17.8h22.8v1.1H660.2z"/>
  <path class="st0" d="M756.7,276.1l-28.4-35.9h-0.2v35.9h-1.2v-37.3h1.7l28.5,35.8h0.2v-35.8h1.2v37.3H756.7z"/>
</g>
</svg>
